<!DOCTYPE svg PUBLIC "-//W3C//DTD SVG 1.1//EN" "http://www.w3.org/Graphics/SVG/1.1/DTD/svg11.dtd">
<!-- Uploaded to: SVG Repo, www.svgrepo.com, Transformed by: SVG Repo Mixer Tools -->
<svg height="800px" width="800px" version="1.1" id="Layer_1" xmlns="http://www.w3.org/2000/svg" xmlns:xlink="http://www.w3.org/1999/xlink" viewBox="0 0 512 512" xml:space="preserve" fill="#000000">
<g id="SVGRepo_bgCarrier" stroke-width="0"/>
<g id="SVGRepo_tracerCarrier" stroke-linecap="round" stroke-linejoin="round"/>
<g id="SVGRepo_iconCarrier"> <g> <path style="fill:#4BAF47;" d="M260.352,311.348H220.91c-58.917,0-106.679-47.762-106.679-106.679v-39.442h39.442 c58.917,0,106.679,47.762,106.679,106.679V311.348z"/> <path style="fill:#4BAF47;" d="M260.352,311.348h39.442c58.917,0,106.679-47.762,106.679-106.679v-39.442h-39.442 c-58.917,0-106.679,47.762-106.679,106.679V311.348z"/> </g> <g> <path style="fill:#292929;" d="M260.352,392.812c5.633,0,10.199-4.567,10.199-10.199v-61.066h29.242 c64.447,0,116.878-52.431,116.878-116.878v-39.442c0-5.632-4.566-10.199-10.199-10.199H367.03 c-47.453,0-88.387,28.427-106.679,69.145c-18.29-40.718-59.226-69.145-106.679-69.145h-39.441c-5.633,0-10.199,4.567-10.199,10.199 v39.442c0,64.447,52.431,116.878,116.878,116.878h29.242v61.066C250.153,388.245,254.719,392.812,260.352,392.812z M367.03,175.426 h29.243v29.243c0,53.199-43.28,96.479-96.479,96.479h-14.818l54.754-54.754c3.983-3.983,3.983-10.441,0-14.425 c-3.983-3.982-10.441-3.982-14.425,0l-54.753,54.753v-14.818C270.551,218.707,313.832,175.426,367.03,175.426z M124.43,204.669 v-29.243h29.242c53.199,0,96.479,43.28,96.479,96.479v14.818l-82.649-82.649c-3.983-3.982-10.441-3.982-14.425,0 c-3.983,3.983-3.983,10.441,0,14.425l82.65,82.649h-14.819C167.711,301.149,124.43,257.868,124.43,204.669z"/> <path style="fill:#292929;" d="M356.404,225.494c2.61,0,5.221-0.996,7.212-2.987l4.008-4.008c3.983-3.983,3.983-10.441,0-14.425 c-3.983-3.982-10.441-3.982-14.425,0l-4.008,4.008c-3.983,3.983-3.983,10.441,0,14.425 C351.184,224.498,353.794,225.494,356.404,225.494z"/> <path style="fill:#292929;" d="M501.801,245.801c-5.633,0-10.199,4.567-10.199,10.199c0,129.911-105.69,235.602-235.602,235.602 c-57.597,0-112.03-20.54-154.961-58.135h32.57c5.633,0,10.199-4.567,10.199-10.199c0-5.632-4.566-10.199-10.199-10.199H78.534 c-5.633,0-10.199,4.567-10.199,10.199v55.076c0,5.632,4.566,10.199,10.199,10.199s10.199-4.567,10.199-10.199v-28.528 C135.207,490.045,193.915,512,256,512c68.38,0,132.667-26.628,181.02-74.981C485.372,388.667,512,324.381,512,256 C512,250.368,507.434,245.801,501.801,245.801z"/> <path style="fill:#292929;" d="M256,20.398c59.647,0,115.901,22.028,159.499,62.215H383.49c-5.633,0-10.199,4.567-10.199,10.199 s4.566,10.199,10.199,10.199h55.076c5.633,0,10.199-4.567,10.199-10.199V37.737c0-5.632-4.566-10.199-10.199-10.199 c-5.633,0-10.199,4.567-10.199,10.199v28.988C381.126,23.611,320.379,0,256,0C187.62,0,123.333,26.628,74.98,74.981 C26.628,123.333,0,187.619,0,256c0,5.632,4.566,10.199,10.199,10.199S20.398,261.632,20.398,256 C20.398,126.089,126.089,20.398,256,20.398z"/> </g> </g>
</svg>