<!DOCTYPE svg PUBLIC "-//W3C//DTD SVG 1.1//EN" "http://www.w3.org/Graphics/SVG/1.1/DTD/svg11.dtd">
<!-- Uploaded to: SVG Repo, www.svgrepo.com, Transformed by: SVG Repo Mixer Tools -->
<svg height="800px" width="800px" version="1.1" id="Layer_1" xmlns="http://www.w3.org/2000/svg" xmlns:xlink="http://www.w3.org/1999/xlink" viewBox="0 0 511.998 511.998" xml:space="preserve" fill="#000000">
<g id="SVGRepo_bgCarrier" stroke-width="0"/>
<g id="SVGRepo_tracerCarrier" stroke-linecap="round" stroke-linejoin="round"/>
<g id="SVGRepo_iconCarrier"> <g> <path style="fill:#4BAF47;" d="M30.107,178.315h41.372c61.8,0,90.846-42.17,111.899-100.274 c10.913-30.119,40.664-52.891,40.664-52.891l-82.036-0.106c-61.8,0-111.899,50.099-111.899,111.899L30.107,178.315L30.107,178.315z "/> <path style="fill:#4BAF47;" d="M334.128,30.697v41.372c0,61.8,42.17,90.846,100.274,111.899 c30.119,10.913,52.891,40.664,52.891,40.664l0.106-82.036c0-61.8-50.099-111.899-111.899-111.899L334.128,30.697L334.128,30.697z"/> <path style="fill:#4BAF47;" d="M481.889,333.684h-41.372c-61.8,0-90.846,42.17-111.899,100.274 c-10.913,30.119-40.664,52.891-40.664,52.891l82.036,0.106c61.8,0,111.899-50.099,111.899-111.899L481.889,333.684L481.889,333.684 z"/> <path style="fill:#4BAF47;" d="M177.868,481.302V439.93c0-61.8-42.17-90.846-100.274-111.899 c-30.119-10.913-52.891-40.664-52.891-40.664l-0.106,82.036c0,61.8,50.099,111.899,111.899,111.899L177.868,481.302 L177.868,481.302z"/> </g> <g> <path style="fill:#5E282D;" d="M129.863,88.756c2.61,0,5.219-0.995,7.21-2.987l5.203-5.202c3.983-3.982,3.983-10.439,0.001-14.422 c-3.982-3.982-10.438-3.983-14.422,0l-5.203,5.202c-3.983,3.982-3.983,10.439-0.001,14.422 C124.643,87.761,127.252,88.756,129.863,88.756z"/> <path style="fill:#5E282D;" d="M22.419,245.469c-6.313-27.697,3.77-46.78,11.878-56.956h37.182c31.92,0,57.59-10.262,78.479-31.373 c16.8-16.978,30.466-41.008,43.009-75.624c9.728-26.851,37.01-48.065,37.275-48.269c3.468-2.655,4.862-7.225,3.463-11.364 c-1.399-4.139-5.279-6.926-9.648-6.931l-82.05-0.106c-67.325,0-122.097,54.772-122.097,122.097v37.005 C8.715,187.171-5.964,212.712,2.535,250.001c1.078,4.729,5.28,7.933,9.934,7.933c0.75,0,1.512-0.084,2.275-0.257 C20.234,256.426,23.671,250.96,22.419,245.469z M141.993,35.241l56.539,0.073c-9.07,10.068-19.098,23.676-24.743,39.253 c-24.075,66.447-53.717,93.55-102.311,93.55H54.726l49.636-49.636c3.982-3.982,3.982-10.439,0-14.423 c-3.983-3.981-10.438-3.981-14.423,0l-49.637,49.637v-16.754C40.304,80.863,85.927,35.241,141.993,35.241z"/> <path style="fill:#5E282D;" d="M323.93,34.887v37.182c0,31.92,10.262,57.59,31.373,78.479c16.977,16.8,41.008,30.466,75.624,43.009 c26.85,9.729,48.064,37.011,48.268,37.275c1.967,2.57,4.985,4,8.099,4c1.089,0,2.19-0.174,3.263-0.537 c4.139-1.399,6.926-5.278,6.932-9.647l0.106-82.05c0-67.325-54.773-122.097-122.097-122.097h-37.003 C325.271,9.305,299.731-5.375,262.44,3.123c-5.491,1.252-8.928,6.717-7.676,12.209s6.712,8.93,12.21,7.677 C294.673,16.694,313.756,26.779,323.93,34.887z M477.202,142.583l-0.073,56.54c-10.067-9.07-23.676-19.098-39.253-24.742 c-66.445-24.076-93.549-53.718-93.549-102.313V55.318l49.636,49.636c1.992,1.992,4.601,2.987,7.211,2.987s5.219-0.995,7.211-2.987 c3.982-3.982,3.982-10.439,0-14.423l-49.636-49.636H375.5C431.578,40.896,477.202,86.518,477.202,142.583z"/> <path style="fill:#5E282D;" d="M509.463,261.997c-1.251-5.49-6.713-8.93-12.21-7.676c-5.491,1.252-8.928,6.718-7.676,12.21 c6.313,27.697-3.77,46.78-11.878,56.956h-37.182c-31.92,0-57.59,10.262-78.479,31.373c-16.8,16.978-30.466,41.008-43.009,75.624 c-9.728,26.851-37.009,48.065-37.275,48.269c-3.468,2.655-4.862,7.225-3.463,11.364c1.399,4.139,5.279,6.926,9.648,6.931 l82.05,0.106c67.325,0,122.097-54.772,122.097-122.097v-37.005C503.282,324.826,517.963,299.286,509.463,261.997z M370.003,476.758 l-56.539-0.073c9.07-10.068,19.098-23.676,24.743-39.253c24.075-66.447,53.717-93.55,102.311-93.55h16.752l-49.636,49.636 c-3.982,3.982-3.982,10.439,0,14.423c1.992,1.991,4.601,2.987,7.211,2.987s5.219-0.996,7.211-2.987l49.637-49.637v16.754 C471.693,431.135,426.068,476.758,370.003,476.758z"/> <path style="fill:#5E282D;" d="M245.022,488.99c-27.699,6.314-46.782-3.77-56.957-11.878V439.93 c0-31.92-10.262-57.591-31.373-78.479c-16.977-16.8-41.008-30.466-75.624-43.009c-26.85-9.729-48.064-37.01-48.268-37.275 c-2.655-3.468-7.224-4.864-11.363-3.462c-4.139,1.399-6.926,5.278-6.932,9.647l-0.106,82.05 c0,67.325,54.773,122.097,122.097,122.097H173.5c10.469,8.864,28.655,19.912,54.288,19.911c6.741,0,14.001-0.765,21.767-2.535 c5.491-1.252,8.928-6.717,7.676-12.209C255.981,491.175,250.518,487.734,245.022,488.99z M34.795,369.415l0.073-56.54 c10.067,9.07,23.676,19.098,39.253,24.742c66.445,24.076,93.549,53.718,93.549,102.313v16.752l-49.636-49.636 c-3.983-3.982-10.438-3.982-14.423,0c-3.982,3.982-3.982,10.439,0,14.423l49.636,49.636h-16.752 C80.418,471.104,34.795,425.48,34.795,369.415z"/> </g> </g>
</svg>