<svg width="16" height="17" viewBox="0 0 16 17" fill="none" xmlns="http://www.w3.org/2000/svg">
<g clip-path="url(#clip0_1_710)">
<path d="M13.6719 5.03369C14.0052 5.59619 14.2526 6.17952 14.4141 6.78369C14.5755 7.38786 14.6562 8.02327 14.6562 8.68994C14.6562 9.35661 14.5755 9.99202 14.4141 10.5962C14.2526 11.2004 14.0052 11.7837 13.6719 12.3462C13.3281 12.9191 12.9375 13.4243 12.5 13.8618C12.0625 14.2993 11.5573 14.6899 10.9844 15.0337C10.4219 15.367 9.83854 15.6144 9.23438 15.7759C8.63021 15.9373 7.99479 16.0181 7.32812 16.0181C6.66146 16.0181 6.02604 15.9373 5.42188 15.7759C4.81771 15.6144 4.23438 15.367 3.67188 15.0337C3.09896 14.6899 2.59375 14.2993 2.15625 13.8618C1.71875 13.4243 1.32812 12.9191 0.984375 12.3462C0.661458 11.7837 0.416667 11.2004 0.25 10.5962C0.0833333 9.99202 0 9.35661 0 8.68994C0 8.02327 0.0833333 7.38786 0.25 6.78369C0.416667 6.17952 0.661458 5.59619 0.984375 5.03369C1.31771 4.46077 1.70573 3.95557 2.14844 3.51807C2.59115 3.08057 3.09896 2.68994 3.67188 2.34619C4.23438 2.01286 4.81771 1.76546 5.42188 1.604C6.02604 1.44255 6.66146 1.36182 7.32812 1.36182C7.99479 1.36182 8.63021 1.44255 9.23438 1.604C9.83854 1.76546 10.4219 2.01286 10.9844 2.34619C11.5573 2.68994 12.0625 3.08057 12.5 3.51807C12.9375 3.95557 13.3281 4.46077 13.6719 5.03369ZM5.59375 10.4243L3.85938 8.68994C3.73438 8.55452 3.56771 8.48682 3.35938 8.48682C3.15104 8.48682 2.96354 8.55452 2.79688 8.68994C2.66146 8.82536 2.59375 8.99463 2.59375 9.19775C2.59375 9.40088 2.66146 9.59098 2.79688 9.76807L5.0625 12.0181C5.19792 12.1535 5.36458 12.2212 5.5625 12.2212C5.76042 12.2212 5.92708 12.1535 6.0625 12.0181L11.7969 6.48682C11.9323 6.3514 12 6.18213 12 5.979C12 5.77588 11.9323 5.59098 11.7969 5.42432C11.6615 5.2889 11.4896 5.22119 11.2812 5.22119C11.0729 5.22119 10.8906 5.2889 10.7344 5.42432L5.59375 10.4243Z" fill="#C5CE38"/>
</g>
<defs>
<clipPath id="clip0_1_710">
<rect width="16" height="16" fill="white" transform="matrix(1 0 0 -1 0 16.6899)"/>
</clipPath>
</defs>
</svg>
