<?xml version="1.0" encoding="iso-8859-1"?>
<!-- Uploaded to: SVG Repo, www.svgrepo.com, Generator: SVG Repo Mixer Tools -->
<svg height="800px" width="800px" version="1.1" id="Layer_1" xmlns="http://www.w3.org/2000/svg" xmlns:xlink="http://www.w3.org/1999/xlink" 
	 viewBox="0 0 512 512" xml:space="preserve">
<path style="fill:#64463C;" d="M388.383,150.069c0,0,17.655,65.839,17.655,105.564c0,33.839-91.219,53.333-91.219,53.333
	l-117.701,0.367c0,0-91.219-19.495-91.219-53.333c0-39.724,17.655-105.564,17.655-105.564L388.383,150.069z"/>
<path style="fill:#FAD7A5;" d="M410.057,387.211l-72.234-18.058c-11.789-2.947-20.06-13.54-20.06-25.692v-43.324H194.177v43.322
	c0,12.152-8.27,22.744-20.06,25.692l-72.235,18.059c-23.578,5.895-40.119,27.08-40.119,51.384v55.75
	c0,9.751,7.904,17.655,17.655,17.655h353.103c9.751,0,17.655-7.904,17.655-17.655v-55.75
	C450.176,414.291,433.635,393.106,410.057,387.211z"/>
<path style="fill:#F0C891;" d="M174.117,369.152l-6.423,1.607l0,0c114.759,35.31,150.069-70.621,150.069-70.621H194.176v43.322
	C194.176,355.613,185.906,366.206,174.117,369.152z"/>
<path style="fill:#FFE1B4;" d="M353.073,185.824v-35.755H158.866v35.755c-10.073,2.046-17.655,10.947-17.655,21.624v8.828
	c0,10.676,7.582,19.578,17.655,21.624v20.353c0,15.091,7.71,29.135,20.441,37.238l48.226,30.689
	c17.35,11.041,39.522,11.041,56.872,0l48.226-30.689c12.732-8.102,20.441-22.146,20.441-37.238V237.9
	c10.073-2.046,17.655-10.947,17.655-21.624v-8.828C370.728,196.771,363.146,187.87,353.073,185.824z"/>
<g>
	<path style="fill:#5A4137;" d="M211.831,229.517L211.831,229.517c-4.855,0-8.828-3.972-8.828-8.828v-8.828
		c0-4.855,3.972-8.828,8.828-8.828l0,0c4.855,0,8.828,3.972,8.828,8.828v8.828C220.659,225.545,216.686,229.517,211.831,229.517z"/>
	<path style="fill:#5A4137;" d="M300.107,229.517L300.107,229.517c-4.855,0-8.828-3.972-8.828-8.828v-8.828
		c0-4.855,3.972-8.828,8.828-8.828l0,0c4.855,0,8.828,3.972,8.828,8.828v8.828C308.935,225.545,304.962,229.517,300.107,229.517z"/>
</g>
<path style="fill:#D7AF7D;" d="M255.969,291.31c-10.75,0-21.164-2.142-30.121-6.198c-4.448-2.013-6.414-7.242-4.405-11.686
	c2.008-4.436,7.233-6.41,11.681-4.401c13.379,6.06,32.31,6.06,45.689,0c4.448-2.008,9.681-0.034,11.681,4.401
	c2.008,4.444,0.043,9.673-4.405,11.686C277.133,289.169,266.719,291.31,255.969,291.31z"/>
<path style="fill:#FFDCA0;" d="M365.035,55.823C358.058,23.263,329.282,0,295.981,0h-80.024c-33.301,0-62.076,23.263-69.054,55.823
	l-14.52,67.763h247.172L365.035,55.823z"/>
<path style="fill:#82D78C;" d="M450.176,494.345v-55.75c0-24.305-16.541-45.49-40.119-51.384l-55.047-13.762
	c-23.864,30.71-59.315,50.275-99.041,50.275s-75.175-19.565-99.039-50.275l-55.048,13.762c-23.578,5.895-40.119,27.08-40.119,51.384
	v55.75c0,9.75,7.905,17.655,17.655,17.655h353.103C442.272,512,450.176,504.095,450.176,494.345z"/>
<path style="fill:#7BC485;" d="M72.005,407.484c-6.428,8.825-10.242,19.585-10.242,31.112v55.749
	c0,9.751,7.904,17.655,17.655,17.655h52.966v-22.199c0-14.047-5.58-27.519-15.513-37.452L72.005,407.484z"/>
<path style="fill:#959CB3;" d="M132.383,512h26.483V371.117c0-4.519-4.427-7.71-8.714-6.281l-11.732,3.911
	c-3.605,1.202-6.036,4.575-6.036,8.374V512H132.383z"/>
<path style="fill:#7BC485;" d="M439.934,407.484c6.428,8.825,10.242,19.585,10.242,31.112v55.749
	c0,9.751-7.904,17.655-17.655,17.655h-52.966v-22.199c0-14.047,5.58-27.519,15.513-37.452L439.934,407.484z"/>
<path style="fill:#959CB3;" d="M379.555,512h-26.483V371.117c0-4.519,4.427-7.71,8.714-6.281l11.732,3.911
	c3.605,1.202,6.036,4.575,6.036,8.374V512H379.555z"/>
<path style="fill:#64463C;" d="M158.866,211.862c0,0,44.138-35.31,158.897-26.483c8.801,0.678,35.31-35.313,35.31-35.313H150.038
	L158.866,211.862z"/>
<path style="fill:#EBCC98;" d="M41.562,123.586c-6.621,0-8.756,9.082-2.74,11.847C80.701,154.668,162.235,167.724,256,167.724
	s175.299-13.056,217.177-32.291c6.017-2.763,3.882-11.847-2.74-11.847H41.562z"/>
</svg>