<svg width="64" height="65" viewBox="0 0 64 65" fill="none" xmlns="http://www.w3.org/2000/svg">
<path d="M16 60.6899H14.1875C12.9375 60.6899 11.8438 60.2837 10.9062 59.4712C9.96875 58.6587 9.41667 57.6483 9.25 56.4399V56.3774L6.5625 37.5649C6.52083 37.3149 6.40625 37.1066 6.21875 36.9399C6.03125 36.7733 5.8125 36.6899 5.5625 36.6899C5.3125 36.6899 5.08333 36.7837 4.875 36.9712C4.66667 37.1587 4.5625 37.3983 4.5625 37.6899C4.5625 37.7316 4.5625 37.7629 4.5625 37.7837C4.5625 37.8045 4.5625 37.8149 4.5625 37.8149L7.25 56.6899C7.54167 58.3983 8.33333 59.8254 9.625 60.9712C10.9167 62.117 12.4375 62.6899 14.1875 62.6899H16C16.2917 62.6899 16.5312 62.5962 16.7188 62.4087C16.9062 62.2212 17 61.9816 17 61.6899C17 61.3983 16.9062 61.1587 16.7188 60.9712C16.5312 60.7837 16.2917 60.6899 16 60.6899ZM28 50.6899C27.7083 50.6899 27.4688 50.7837 27.2812 50.9712C27.0938 51.1587 27 51.3983 27 51.6899V55.6899C27 56.5233 27.2917 57.2316 27.875 57.8149C28.4583 58.3983 29.1667 58.6899 30 58.6899C30.8333 58.6899 31.5417 58.3983 32.125 57.8149C32.7083 57.2316 33 56.5233 33 55.6899V43.6899C33 42.8566 32.7083 42.1483 32.125 41.5649C31.5417 40.9816 30.8333 40.6899 30 40.6899C29.1667 40.6899 28.4583 40.9816 27.875 41.5649C27.2917 42.1483 27 42.8566 27 43.6899V47.6899C27 47.9816 27.0938 48.2212 27.2812 48.4087C27.4688 48.5962 27.7083 48.6899 28 48.6899C28.2917 48.6899 28.5312 48.5962 28.7188 48.4087C28.9062 48.2212 29 47.9816 29 47.6899V43.6899C29 43.3983 29.0938 43.1587 29.2812 42.9712C29.4688 42.7837 29.7083 42.6899 30 42.6899C30.2917 42.6899 30.5312 42.7837 30.7188 42.9712C30.9062 43.1587 31 43.3983 31 43.6899V55.6899C31 55.9816 30.9062 56.2212 30.7188 56.4087C30.5312 56.5962 30.2917 56.6899 30 56.6899C29.7083 56.6899 29.4688 56.5962 29.2812 56.4087C29.0938 56.2212 29 55.9816 29 55.6899V51.6899C29 51.3983 28.9062 51.1587 28.7188 50.9712C28.5312 50.7837 28.2917 50.6899 28 50.6899ZM14 40.6899C13.1667 40.6899 12.4583 40.9816 11.875 41.5649C11.2917 42.1483 11 42.8566 11 43.6899V55.6899C11 56.5233 11.2917 57.2316 11.875 57.8149C12.4583 58.3983 13.1667 58.6899 14 58.6899C14.8333 58.6899 15.5417 58.3983 16.125 57.8149C16.7083 57.2316 17 56.5233 17 55.6899V43.6899C17 42.8566 16.7083 42.1483 16.125 41.5649C15.5417 40.9816 14.8333 40.6899 14 40.6899ZM15 55.6899C15 55.9816 14.9062 56.2212 14.7188 56.4087C14.5312 56.5962 14.2917 56.6899 14 56.6899C13.7083 56.6899 13.4688 56.5962 13.2812 56.4087C13.0938 56.2212 13 55.9816 13 55.6899V43.6899C13 43.3983 13.0938 43.1587 13.2812 42.9712C13.4688 42.7837 13.7083 42.6899 14 42.6899C14.2917 42.6899 14.5312 42.7837 14.7188 42.9712C14.9062 43.1587 15 43.3983 15 43.6899V55.6899ZM19 43.6899V55.6899C19 56.5233 19.2917 57.2316 19.875 57.8149C20.4583 58.3983 21.1667 58.6899 22 58.6899C22.8333 58.6899 23.5417 58.3983 24.125 57.8149C24.7083 57.2316 25 56.5233 25 55.6899V43.6899C25 42.8566 24.7083 42.1483 24.125 41.5649C23.5417 40.9816 22.8333 40.6899 22 40.6899C21.1667 40.6899 20.4583 40.9816 19.875 41.5649C19.2917 42.1483 19 42.8566 19 43.6899ZM23 43.6899V55.6899C23 55.9816 22.9062 56.2212 22.7188 56.4087C22.5312 56.5962 22.2917 56.6899 22 56.6899C21.7083 56.6899 21.4688 56.5962 21.2812 56.4087C21.0938 56.2212 21 55.9816 21 55.6899V43.6899C21 43.3983 21.0938 43.1587 21.2812 42.9712C21.4688 42.7837 21.7083 42.6899 22 42.6899C22.2917 42.6899 22.5312 42.7837 22.7188 42.9712C22.9062 43.1587 23 43.3983 23 43.6899ZM44 38.6899C44.2917 38.6899 44.5312 38.5962 44.7188 38.4087C44.9062 38.2212 45 37.9816 45 37.6899C45 37.3983 44.9062 37.1587 44.7188 36.9712C44.5312 36.7837 44.2917 36.6899 44 36.6899H37C36.7083 36.6899 36.4688 36.7837 36.2812 36.9712C36.0938 37.1587 36 37.3983 36 37.6899C36 37.9816 36.0938 38.2212 36.2812 38.4087C36.4688 38.5962 36.7083 38.6899 37 38.6899H44ZM23 36.6899H11C10.7083 36.6899 10.4688 36.7837 10.2812 36.9712C10.0938 37.1587 10 37.3983 10 37.6899C10 37.9816 10.0938 38.2212 10.2812 38.4087C10.4688 38.5962 10.7083 38.6899 11 38.6899H23C23.2917 38.6899 23.5312 38.5962 23.7188 38.4087C23.9062 38.2212 24 37.9816 24 37.6899C24 37.3983 23.9062 37.1587 23.7188 36.9712C23.5312 36.7837 23.2917 36.6899 23 36.6899ZM55.9375 43.7524C56.5625 43.2941 57.0625 42.7108 57.4375 42.0024C57.8125 41.2941 58 40.5233 58 39.6899C58 39.3983 57.9062 39.1587 57.7188 38.9712C57.5312 38.7837 57.2917 38.6899 57 38.6899H55.3125L55.875 34.6899H57C57.8333 34.6899 58.5417 34.3983 59.125 33.8149C59.7083 33.2316 60 32.5233 60 31.6899C60 30.8566 59.7083 30.1483 59.125 29.5649C58.5417 28.9816 57.8333 28.6899 57 28.6899H50.75L51.625 26.7524C51.9583 27.0024 52.3229 27.2004 52.7188 27.3462C53.1146 27.492 53.5417 27.5649 54 27.5649C54.9167 27.5649 55.7292 27.2941 56.4375 26.7524C57.1458 26.2108 57.625 25.5024 57.875 24.6274C57.9167 24.4608 57.9479 24.2941 57.9688 24.1274C57.9896 23.9608 58 23.7941 58 23.6274C58 23.5858 58 23.5545 58 23.5337C58 23.5129 58 23.4816 58 23.4399C58.5833 23.1066 59.0625 22.6274 59.4375 22.0024C59.8125 21.3774 60 20.7108 60 20.0024C60 19.4191 59.8854 18.867 59.6562 18.3462C59.4271 17.8254 59.1042 17.3774 58.6875 17.0024C58.7708 16.8358 58.8646 16.6379 58.9688 16.4087C59.0729 16.1795 59.1458 15.9399 59.1875 15.6899H59.25C59.2917 15.4399 59.3333 15.1795 59.375 14.9087C59.4167 14.6379 59.4375 14.3774 59.4375 14.1274C59.4375 13.2941 59.2812 12.5129 58.9688 11.7837C58.6562 11.0545 58.2292 10.4191 57.6875 9.87744C57.6042 9.79411 57.5 9.73161 57.375 9.68994C57.25 9.64827 57.125 9.62744 57 9.62744C56.7083 9.62744 56.4688 9.72119 56.2812 9.90869C56.0938 10.0962 56 10.3358 56 10.6274C56 10.7524 56.0208 10.8774 56.0625 11.0024C56.1042 11.1274 56.1875 11.2316 56.3125 11.3149C56.6458 11.6899 56.9167 12.117 57.125 12.5962C57.3333 13.0754 57.4375 13.5858 57.4375 14.1274C57.4375 14.9608 57.1979 15.7212 56.7188 16.4087C56.2396 17.0962 55.6042 17.5649 54.8125 17.8149V17.8774C54.6458 17.9191 54.5 18.0233 54.375 18.1899C54.25 18.3566 54.1875 18.5441 54.1875 18.7524C54.1875 18.8774 54.1771 19.0024 54.1562 19.1274C54.1354 19.2524 54.1042 19.3774 54.0625 19.5024V19.4399C53.8958 20.1066 53.5417 20.6483 53 21.0649C52.4583 21.4816 51.8542 21.6899 51.1875 21.6899C50.4792 21.6899 49.8646 21.4816 49.3438 21.0649C48.8229 20.6483 48.4792 20.1274 48.3125 19.5024C48.3125 19.5024 48.3125 19.4816 48.3125 19.4399C48.2708 19.3566 48.2396 19.242 48.2188 19.0962C48.1979 18.9504 48.1875 18.8149 48.1875 18.6899C48.1875 18.1483 48.3229 17.6483 48.5938 17.1899C48.8646 16.7316 49.2083 16.3566 49.625 16.0649H49.6875C49.8125 15.9816 49.9271 15.867 50.0312 15.7212C50.1354 15.5754 50.1875 15.3983 50.1875 15.1899C50.1875 14.9399 50.0833 14.7108 49.875 14.5024C49.6667 14.2941 49.4375 14.1899 49.1875 14.1899C49.0625 14.1899 48.9583 14.2108 48.875 14.2524C48.7917 14.2941 48.7292 14.3358 48.6875 14.3774C47.9375 14.7941 47.3333 15.3879 46.875 16.1587C46.4167 16.9295 46.1875 17.7733 46.1875 18.6899C46.1875 18.7316 46.1875 18.7941 46.1875 18.8774C46.1875 18.9608 46.1875 19.0441 46.1875 19.1274V19.0649C46.1042 19.1066 46.0104 19.1274 45.9062 19.1274C45.8021 19.1274 45.6875 19.1274 45.5625 19.1274C45.4375 19.1274 45.3125 19.1274 45.1875 19.1274C45.0625 19.1274 44.9375 19.1066 44.8125 19.0649H44.875C44.4167 18.9399 44.0312 18.742 43.7188 18.4712C43.4062 18.2004 43.1458 17.8774 42.9375 17.5024C42.9375 17.4608 42.9375 17.4399 42.9375 17.4399C42.8542 17.2316 42.7812 17.0233 42.7188 16.8149C42.6562 16.6066 42.625 16.3774 42.625 16.1274C42.625 16.1274 42.625 16.1066 42.625 16.0649C42.625 15.8149 42.5312 15.5858 42.3438 15.3774C42.1562 15.1691 41.9167 15.0649 41.625 15.0649C41.375 15.0649 41.1458 15.1587 40.9375 15.3462C40.7292 15.5337 40.625 15.7733 40.625 16.0649C40.625 16.0649 40.625 16.0754 40.625 16.0962C40.625 16.117 40.625 16.1274 40.625 16.1274C40.625 16.3774 40.6458 16.6066 40.6875 16.8149C40.7292 17.0233 40.7708 17.2316 40.8125 17.4399C40.6458 17.4816 40.4792 17.5233 40.3125 17.5649C40.1458 17.6066 39.9792 17.6274 39.8125 17.6274C39.6875 17.6274 39.5625 17.617 39.4375 17.5962C39.3125 17.5754 39.1875 17.5441 39.0625 17.5024C38.7292 17.4191 38.4375 17.2941 38.1875 17.1274C37.9375 16.9608 37.7083 16.7524 37.5 16.5024V16.4399C37.2917 16.1899 37.125 15.9087 37 15.5962C36.875 15.2837 36.8125 14.9608 36.8125 14.6274C36.8125 13.9191 37.0312 13.2941 37.4688 12.7524C37.9062 12.2108 38.4375 11.8566 39.0625 11.6899H39.125C39.2917 11.6483 39.4479 11.5545 39.5938 11.4087C39.7396 11.2629 39.8125 11.0858 39.8125 10.8774L39.875 10.6899C39.875 10.6483 39.875 10.6066 39.875 10.5649C39.875 10.5233 39.875 10.5024 39.875 10.5024C40.0833 9.79411 40.4375 9.18994 40.9375 8.68994C41.4375 8.18994 42.0417 7.85661 42.75 7.68994C42.75 7.81494 42.7396 7.97119 42.7188 8.15869C42.6979 8.34619 42.6875 8.52327 42.6875 8.68994C42.6875 9.23161 42.7604 9.76286 42.9062 10.2837C43.0521 10.8045 43.25 11.2733 43.5 11.6899C43.5833 11.8566 43.6979 11.9816 43.8438 12.0649C43.9896 12.1483 44.1458 12.1899 44.3125 12.1899C44.6042 12.1899 44.8438 12.0962 45.0312 11.9087C45.2188 11.7212 45.3125 11.4816 45.3125 11.1899C45.3125 11.1066 45.3021 11.0233 45.2812 10.9399C45.2604 10.8566 45.2292 10.7733 45.1875 10.6899C45.0208 10.3983 44.8958 10.0858 44.8125 9.75244C44.7292 9.41911 44.6875 9.06494 44.6875 8.68994C44.6875 8.39827 44.7188 8.10661 44.7812 7.81494C44.8438 7.52327 44.9375 7.23161 45.0625 6.93994C45.3958 6.27327 45.8854 5.73161 46.5312 5.31494C47.1771 4.89827 47.8958 4.68994 48.6875 4.68994C49.7708 4.68994 50.7083 5.07536 51.5 5.84619C52.2917 6.61702 52.6875 7.56494 52.6875 8.68994C52.6875 8.73161 52.6771 8.78369 52.6562 8.84619C52.6354 8.90869 52.625 8.98161 52.625 9.06494V9.00244C52.625 9.04411 52.625 9.06494 52.625 9.06494C52.625 9.35661 52.7292 9.59619 52.9375 9.78369C53.1458 9.97119 53.375 10.0649 53.625 10.0649C53.875 10.0649 54.0938 9.98161 54.2812 9.81494C54.4688 9.64827 54.5833 9.43994 54.625 9.18994C54.625 9.10661 54.6354 9.02327 54.6562 8.93994C54.6771 8.85661 54.6875 8.77327 54.6875 8.68994C54.6875 7.02327 54.0938 5.60661 52.9062 4.43994C51.7188 3.27327 50.3125 2.68994 48.6875 2.68994C47.6042 2.68994 46.6146 2.95036 45.7188 3.47119C44.8229 3.99202 44.1042 4.66911 43.5625 5.50244C42.2292 5.54411 41.0521 5.98161 40.0312 6.81494C39.0104 7.64827 38.3333 8.68994 38 9.93994V10.0024C37.0417 10.3774 36.2812 10.9712 35.7188 11.7837C35.1562 12.5962 34.875 13.5233 34.875 14.5649C34.875 15.0233 34.9271 15.4504 35.0312 15.8462C35.1354 16.242 35.2708 16.6274 35.4375 17.0024V16.9399C35.3542 17.0649 35.2604 17.2004 35.1562 17.3462C35.0521 17.492 34.9792 17.6274 34.9375 17.7524L34.875 17.8149L34.0625 16.0024C33.7292 15.2941 33.2708 14.6795 32.6875 14.1587C32.1042 13.6379 31.4375 13.2733 30.6875 13.0649L30.625 13.0024C30.5417 12.9608 30.4271 12.9295 30.2812 12.9087C30.1354 12.8879 30 12.8774 29.875 12.8774L29.8125 12.8149L29.5 7.50244C29.5 7.25244 29.3958 7.03369 29.1875 6.84619C28.9792 6.65869 28.75 6.56494 28.5 6.56494C28.2083 6.56494 27.9688 6.65869 27.7812 6.84619C27.5938 7.03369 27.5 7.27327 27.5 7.56494C27.5 7.56494 27.5 7.57536 27.5 7.59619C27.5 7.61702 27.5 7.62744 27.5 7.62744L27.8125 12.8774C27.6458 12.9191 27.4792 12.9712 27.3125 13.0337C27.1458 13.0962 26.9792 13.1483 26.8125 13.1899H26.875L25.5 8.43994C25.4583 8.23161 25.3438 8.05452 25.1562 7.90869C24.9688 7.76286 24.7708 7.68994 24.5625 7.68994C24.2708 7.68994 24.0312 7.78369 23.8438 7.97119C23.6562 8.15869 23.5625 8.39827 23.5625 8.68994C23.5625 8.73161 23.5625 8.77327 23.5625 8.81494C23.5625 8.85661 23.5625 8.91911 23.5625 9.00244V8.93994L23.625 9.06494L23.5 9.00244C23.4167 8.91911 23.3125 8.84619 23.1875 8.78369C23.0625 8.72119 22.9375 8.68994 22.8125 8.68994C22.6875 8.68994 22.5625 8.71077 22.4375 8.75244C22.3125 8.79411 22.2083 8.87744 22.125 9.00244V8.93994L19.125 11.8149C19.0417 11.9399 18.9688 12.0545 18.9062 12.1587C18.8438 12.2629 18.8125 12.3983 18.8125 12.5649C18.8125 12.7316 18.8542 12.8879 18.9375 13.0337C19.0208 13.1795 19.1458 13.2941 19.3125 13.3774L23.75 16.3149C23.7083 16.4399 23.6667 16.5649 23.625 16.6899C23.5833 16.8149 23.5417 16.9608 23.5 17.1274C23.4583 17.3358 23.4271 17.5441 23.4062 17.7524C23.3854 17.9608 23.375 18.1691 23.375 18.3774C23.375 18.4608 23.375 18.5441 23.375 18.6274C23.375 18.7108 23.375 18.7941 23.375 18.8774C22.625 19.0024 21.9167 19.2212 21.25 19.5337C20.5833 19.8462 19.9583 20.2316 19.375 20.6899L18.6875 20.0024C18.6042 19.9191 18.5 19.8462 18.375 19.7837C18.25 19.7212 18.125 19.6899 18 19.6899C17.75 19.6899 17.5208 19.7941 17.3125 20.0024C17.1042 20.2108 17 20.4399 17 20.6899C17 20.8149 17.0312 20.9399 17.0938 21.0649C17.1562 21.1899 17.2292 21.2941 17.3125 21.3774L17.375 21.4399C16.5417 21.6483 15.8229 22.0233 15.2188 22.5649C14.6146 23.1066 14.1667 23.7733 13.875 24.5649H13.8125L13.75 24.8774L11.3125 24.0649C11.2708 24.0233 11.2292 24.0024 11.1875 24.0024C11.1458 24.0024 11.0833 24.0024 11 24.0024C10.7083 24.0024 10.4688 24.0962 10.2812 24.2837C10.0938 24.4712 10 24.7108 10 25.0024C10 25.2108 10.0625 25.3983 10.1875 25.5649C10.3125 25.7316 10.4792 25.8566 10.6875 25.9399L30.8125 32.8774C30.9792 32.9608 31.125 33.0858 31.25 33.2524C31.375 33.4191 31.4375 33.6274 31.4375 33.8774C31.4375 34.1274 31.3438 34.3566 31.1562 34.5649C30.9688 34.7733 30.7292 34.8774 30.4375 34.8774C30.3958 34.8774 30.3438 34.867 30.2812 34.8462C30.2188 34.8254 30.1667 34.8149 30.125 34.8149L3.6875 25.6274C3.47917 25.5441 3.3125 25.4191 3.1875 25.2524C3.0625 25.0858 3 24.8983 3 24.6899C3 24.4816 3.05208 24.3045 3.15625 24.1587C3.26042 24.0129 3.39583 23.8983 3.5625 23.8149C3.64583 23.7733 3.71875 23.742 3.78125 23.7212C3.84375 23.7004 3.91667 23.6899 4 23.6899C4.04167 23.6899 4.09375 23.6899 4.15625 23.6899C4.21875 23.6899 4.27083 23.7108 4.3125 23.7524L6.875 24.6274C6.95833 24.6691 7.03125 24.6899 7.09375 24.6899C7.15625 24.6899 7.20833 24.6899 7.25 24.6899C7.54167 24.6899 7.78125 24.5962 7.96875 24.4087C8.15625 24.2212 8.25 23.9816 8.25 23.6899C8.25 23.4816 8.1875 23.2941 8.0625 23.1274C7.9375 22.9608 7.77083 22.8358 7.5625 22.7524L5 21.8774C4.83333 21.7941 4.66667 21.742 4.5 21.7212C4.33333 21.7004 4.14583 21.6899 3.9375 21.6899C3.14583 21.6899 2.44792 21.9816 1.84375 22.5649C1.23958 23.1483 0.9375 23.8566 0.9375 24.6899C0.9375 25.3566 1.13542 25.9399 1.53125 26.4399C1.92708 26.9399 2.41667 27.2941 3 27.5024L6.375 28.6899H3C2.16667 28.6899 1.45833 28.9816 0.875 29.5649C0.291667 30.1483 0 30.8566 0 31.6899C0 32.5233 0.291667 33.2316 0.875 33.8149C1.45833 34.3983 2.16667 34.6899 3 34.6899H23.6875L29.5 36.6899C29.625 36.7316 29.7708 36.7733 29.9375 36.8149C30.1042 36.8566 30.2917 36.8774 30.5 36.8774C31.3333 36.8774 32.0417 36.5858 32.625 36.0024C33.2083 35.4191 33.5 34.7108 33.5 33.8774C33.5 33.2108 33.3021 32.617 32.9062 32.0962C32.5104 31.5754 32.0208 31.2108 31.4375 31.0024L30.5 30.6899H57C57.2917 30.6899 57.5312 30.7837 57.7188 30.9712C57.9062 31.1587 58 31.3983 58 31.6899C58 31.9816 57.9062 32.2212 57.7188 32.4087C57.5312 32.5962 57.2917 32.6899 57 32.6899H36.4375C36.1875 32.6899 35.9583 32.7837 35.75 32.9712C35.5417 33.1587 35.4375 33.3983 35.4375 33.6899C35.4375 33.9816 35.5417 34.2212 35.75 34.4087C35.9583 34.5962 36.1875 34.6899 36.4375 34.6899H53.875L53.25 39.0024C52.9583 39.1274 52.6875 39.2733 52.4375 39.4399C52.1875 39.6066 51.9583 39.7733 51.75 39.9399V39.8149C51.75 39.7316 51.75 39.6691 51.75 39.6274C51.75 39.5858 51.75 39.5233 51.75 39.4399C51.75 39.1066 51.6875 38.7837 51.5625 38.4712C51.4375 38.1587 51.2708 37.8774 51.0625 37.6274C50.8125 37.3358 50.5104 37.117 50.1562 36.9712C49.8021 36.8254 49.4167 36.7524 49 36.7524C48.5833 36.7524 48.1979 36.8254 47.8438 36.9712C47.4896 37.117 47.1875 37.3358 46.9375 37.6274C46.7292 37.8774 46.5625 38.1587 46.4375 38.4712C46.3125 38.7837 46.25 39.1066 46.25 39.4399C46.25 39.5233 46.25 39.5962 46.25 39.6587C46.25 39.7212 46.25 39.7733 46.25 39.8149L46.625 42.7524C46.5 42.7108 46.3854 42.6899 46.2812 42.6899C46.1771 42.6899 46.0833 42.6899 46 42.6899C45.0417 42.6899 44.1354 42.8462 43.2812 43.1587C42.4271 43.4712 41.6667 43.8983 41 44.4399V43.6899C41 42.8566 40.7083 42.1483 40.125 41.5649C39.5417 40.9816 38.8333 40.6899 38 40.6899C37.1667 40.6899 36.4583 40.9816 35.875 41.5649C35.2917 42.1483 35 42.8566 35 43.6899V55.6899C35 56.5233 35.2917 57.2316 35.875 57.8149C36.4583 58.3983 37.1667 58.6899 38 58.6899C38.375 58.6899 38.7396 58.617 39.0938 58.4712C39.4479 58.3254 39.7708 58.1274 40.0625 57.8774C40.3125 58.4191 40.6042 58.9191 40.9375 59.3774C41.2708 59.8358 41.625 60.2733 42 60.6899H20C19.7083 60.6899 19.4688 60.7837 19.2812 60.9712C19.0938 61.1587 19 61.3983 19 61.6899C19 61.9816 19.0938 62.2212 19.2812 62.4087C19.4688 62.5962 19.7083 62.6899 20 62.6899H45.8125C45.8125 62.6899 45.8333 62.6899 45.875 62.6899C45.9167 62.6899 45.9479 62.6899 45.9688 62.6899C45.9896 62.6899 46 62.6899 46 62.6899C46.5417 62.6899 47.0729 62.6379 47.5938 62.5337C48.1146 62.4295 48.6042 62.2733 49.0625 62.0649L49 62.1274C49.4583 62.2941 49.9375 62.4295 50.4375 62.5337C50.9375 62.6379 51.4583 62.6899 52 62.6899C52.9167 62.6899 53.8021 62.3983 54.6562 61.8149C55.5104 61.2316 56.3125 60.3983 57.0625 59.3149C57.1458 59.2316 57.1979 59.1379 57.2188 59.0337C57.2396 58.9295 57.25 58.8358 57.25 58.7524C57.25 58.4608 57.1562 58.2212 56.9688 58.0337C56.7812 57.8462 56.5417 57.7524 56.25 57.7524C56.0833 57.7524 55.9271 57.7837 55.7812 57.8462C55.6354 57.9087 55.5208 58.0233 55.4375 58.1899C54.8958 58.9816 54.3229 59.5962 53.7188 60.0337C53.1146 60.4712 52.5417 60.6899 52 60.6899C51.5417 60.6899 51.0938 60.6379 50.6562 60.5337C50.2188 60.4295 49.7917 60.2733 49.375 60.0649L49.4375 60.1274C49.3542 60.0858 49.2812 60.0545 49.2188 60.0337C49.1562 60.0129 49.0833 60.0024 49 60.0024C48.9167 60.0024 48.8438 60.0129 48.7812 60.0337C48.7188 60.0545 48.6458 60.0858 48.5625 60.1274C48.1875 60.2941 47.7812 60.4295 47.3438 60.5337C46.9062 60.6379 46.4583 60.6899 46 60.6899C46 60.6899 45.9896 60.6899 45.9688 60.6899C45.9479 60.6899 45.9375 60.6899 45.9375 60.6899C44.4375 60.6483 43.0729 59.4295 41.8438 57.0337C40.6146 54.6379 40 52.5233 40 50.6899C40 49.0233 40.5833 47.6066 41.75 46.4399C42.9167 45.2733 44.3333 44.6899 46 44.6899C46.1667 44.6899 46.3229 44.7004 46.4688 44.7212C46.6146 44.742 46.7708 44.7524 46.9375 44.7524H46.875V44.8149C46.9583 45.3566 47.1979 45.8045 47.5938 46.1587C47.9896 46.5129 48.4583 46.6899 49 46.6899C49.5417 46.6899 50.0104 46.5129 50.4062 46.1587C50.8021 45.8045 51.0417 45.3566 51.125 44.8149V44.7524C51.25 44.7524 51.3854 44.742 51.5312 44.7212C51.6771 44.7004 51.8333 44.6899 52 44.6899C53.6667 44.6899 55.0833 45.2733 56.25 46.4399C57.4167 47.6066 58 49.0233 58 50.6899C57.9583 51.4399 57.8646 52.1691 57.7188 52.8774C57.5729 53.5858 57.375 54.2524 57.125 54.8774V54.8149C57.125 54.8566 57.1146 54.9087 57.0938 54.9712C57.0729 55.0337 57.0625 55.1066 57.0625 55.1899C57.0625 55.4816 57.1562 55.7212 57.3438 55.9087C57.5312 56.0962 57.7708 56.1899 58.0625 56.1899C58.2708 56.1899 58.4688 56.1274 58.6562 56.0024C58.8438 55.8774 58.9583 55.7108 59 55.5024C59.2917 54.7941 59.5208 54.0337 59.6875 53.2212C59.8542 52.4087 59.9583 51.5649 60 50.6899C60 49.1899 59.625 47.8254 58.875 46.5962C58.125 45.367 57.1458 44.4191 55.9375 43.7524ZM3 32.6899C2.70833 32.6899 2.46875 32.5962 2.28125 32.4087C2.09375 32.2212 2 31.9816 2 31.6899C2 31.3983 2.09375 31.1587 2.28125 30.9712C2.46875 30.7837 2.70833 30.6899 3 30.6899H12.1875L17.9375 32.6899H3ZM56 20.0024C56 19.9191 56.0104 19.8358 56.0312 19.7524C56.0521 19.6691 56.0833 19.5858 56.125 19.5024V19.4399C56.375 19.3149 56.6042 19.1795 56.8125 19.0337C57.0208 18.8879 57.2292 18.7316 57.4375 18.5649C57.6042 18.7316 57.7396 18.9399 57.8438 19.1899C57.9479 19.4399 58 19.7108 58 20.0024C58 20.4191 57.8646 20.8045 57.5938 21.1587C57.3229 21.5129 57 21.7524 56.625 21.8774H56.5625C56.3542 21.9608 56.1875 22.0858 56.0625 22.2524C55.9375 22.4191 55.875 22.6066 55.875 22.8149C55.875 22.8566 55.875 22.8983 55.875 22.9399C55.875 22.9816 55.8958 23.0233 55.9375 23.0649C55.9375 23.1483 55.9479 23.2316 55.9688 23.3149C55.9896 23.3983 56 23.5024 56 23.6274C56 23.7108 55.9896 23.7941 55.9688 23.8774C55.9479 23.9608 55.9375 24.0441 55.9375 24.1274V24.0649C55.8125 24.5233 55.5729 24.8879 55.2188 25.1587C54.8646 25.4295 54.4583 25.5649 54 25.5649C53.9167 25.5649 53.8229 25.5649 53.7188 25.5649C53.6146 25.5649 53.5208 25.5441 53.4375 25.5024H53.5C53.2917 25.4608 53.0938 25.3774 52.9062 25.2524C52.7188 25.1274 52.5625 24.9816 52.4375 24.8149L53.125 23.2524C53.25 23.2108 53.3542 23.1691 53.4375 23.1274C53.5208 23.0858 53.6042 23.0441 53.6875 23.0024C54.2292 22.6691 54.7083 22.242 55.125 21.7212C55.5417 21.2004 55.8333 20.6274 56 20.0024ZM50.8125 23.6274L48.5625 28.6899H42.25L42.5 27.8149C42.5 27.8149 42.5104 27.7837 42.5312 27.7212C42.5521 27.6587 42.5625 27.6066 42.5625 27.5649C42.5625 27.5649 42.5521 27.5441 42.5312 27.5024C42.5104 27.4608 42.5 27.4191 42.5 27.3774L40.9375 19.5024C41.0625 19.4608 41.1979 19.4191 41.3438 19.3774C41.4896 19.3358 41.625 19.2733 41.75 19.1899L41.6875 19.2524C41.9792 19.5858 42.2917 19.8774 42.625 20.1274C42.9583 20.3774 43.3125 20.5858 43.6875 20.7524H43.75L44.9375 26.8149C44.9792 27.0233 45.0833 27.2004 45.25 27.3462C45.4167 27.492 45.6042 27.5649 45.8125 27.5649C45.8542 27.5649 45.875 27.5649 45.875 27.5649C45.875 27.5649 45.8958 27.5649 45.9375 27.5649C46.1458 27.5649 46.3333 27.5129 46.5 27.4087C46.6667 27.3045 46.7708 27.1691 46.8125 27.0024H46.875L48.75 23.0024C49.0417 23.2108 49.3542 23.367 49.6875 23.4712C50.0208 23.5754 50.375 23.6274 50.75 23.6274H50.8125ZM46.75 21.0024C46.8333 21.1274 46.9062 21.242 46.9688 21.3462C47.0312 21.4504 47.1042 21.5441 47.1875 21.6274L46.3125 23.4399L45.875 21.1274C46.0417 21.1274 46.1979 21.117 46.3438 21.0962C46.4896 21.0754 46.6458 21.0441 46.8125 21.0024H46.75ZM38.875 19.5024L39.25 21.3149C39.125 21.3566 39 21.3879 38.875 21.4087C38.75 21.4295 38.625 21.4399 38.5 21.4399C38.4167 21.4399 38.3333 21.4295 38.25 21.4087C38.1667 21.3879 38.0833 21.3774 38 21.3774C37.5833 21.2524 37.2396 21.0129 36.9688 20.6587C36.6979 20.3045 36.5625 19.8983 36.5625 19.4399C36.5625 19.3566 36.5625 19.2629 36.5625 19.1587C36.5625 19.0545 36.5833 18.9608 36.625 18.8774V18.9399C36.625 18.8566 36.6458 18.7837 36.6875 18.7212C36.7292 18.6587 36.75 18.6066 36.75 18.5649C37 18.7733 37.2708 18.9504 37.5625 19.0962C37.8542 19.242 38.1667 19.3566 38.5 19.4399H38.5625C38.6042 19.4399 38.6562 19.4504 38.7188 19.4712C38.7812 19.492 38.8333 19.5024 38.875 19.5024ZM37.5 23.3149C37.6667 23.3566 37.8333 23.3879 38 23.4087C38.1667 23.4295 38.3542 23.4399 38.5625 23.4399C38.7292 23.4399 38.9167 23.4191 39.125 23.3774C39.3333 23.3358 39.5208 23.2941 39.6875 23.2524H39.625L40.5 27.5649L40.1875 28.6899H40L37.5 23.3149ZM37.8125 28.6899H35.8125C35.8542 28.6899 35.8958 28.6795 35.9375 28.6587C35.9792 28.6379 36.0208 28.6274 36.0625 28.6274L37.4375 27.8149L37.8125 28.6899ZM30.9375 15.3774L29.875 16.0024C29.75 16.0858 29.6354 16.2004 29.5312 16.3462C29.4271 16.492 29.375 16.6691 29.375 16.8774C29.375 17.1274 29.4792 17.3566 29.6875 17.5649C29.8958 17.7733 30.125 17.8774 30.375 17.8774C30.5 17.8774 30.6042 17.8566 30.6875 17.8149C30.7708 17.7733 30.8542 17.7316 30.9375 17.6899H30.875L32.25 16.9399L33.5625 19.6274L32.375 20.3149C32.25 20.3983 32.1354 20.5129 32.0312 20.6587C31.9271 20.8045 31.875 20.9816 31.875 21.1899C31.875 21.4399 31.9792 21.6691 32.1875 21.8774C32.3958 22.0858 32.625 22.1899 32.875 22.1899C33 22.1899 33.1042 22.1795 33.1875 22.1587C33.2708 22.1379 33.3542 22.1066 33.4375 22.0649H33.375L34.4375 21.4399L36.5625 26.0024L35.0625 26.8774C34.8958 26.9608 34.7708 27.0754 34.6875 27.2212C34.6042 27.367 34.5625 27.5441 34.5625 27.7524C34.5625 27.9608 34.625 28.1483 34.75 28.3149C34.875 28.4816 35.0417 28.6066 35.25 28.6899H31.75L30.625 27.1274L33.1875 25.6274C33.3125 25.5441 33.4271 25.4295 33.5312 25.2837C33.6354 25.1379 33.6875 24.9608 33.6875 24.7524C33.6875 24.5024 33.5833 24.2733 33.375 24.0649C33.1667 23.8566 32.9375 23.7524 32.6875 23.7524C32.6042 23.7524 32.5104 23.7629 32.4062 23.7837C32.3021 23.8045 32.2292 23.8566 32.1875 23.9399V23.8774L29.5 25.4399L27.8125 23.0024L29.8125 21.8149C29.9375 21.7316 30.0521 21.617 30.1562 21.4712C30.2604 21.3254 30.3125 21.1483 30.3125 20.9399C30.3125 20.6899 30.2083 20.4608 30 20.2524C29.7917 20.0441 29.5625 19.9399 29.3125 19.9399C29.2292 19.9399 29.1458 19.9504 29.0625 19.9712C28.9792 19.992 28.8958 20.0233 28.8125 20.0649L26.625 21.3149L26 20.4399C25.7917 20.1483 25.6354 19.8254 25.5312 19.4712C25.4271 19.117 25.375 18.7524 25.375 18.3774C25.375 17.3774 25.7292 16.5233 26.4375 15.8149C27.1458 15.1066 27.9792 14.7524 28.9375 14.7524C29.1458 14.7524 29.3438 14.7733 29.5312 14.8149C29.7188 14.8566 29.8958 14.8983 30.0625 14.9399C30.2292 14.9816 30.3854 15.0441 30.5312 15.1274C30.6771 15.2108 30.8125 15.2941 30.9375 15.3774ZM21.4375 12.4399L22.75 11.1274L24.75 13.1899L25.125 14.3149C25.0833 14.3566 25.0312 14.4087 24.9688 14.4712C24.9062 14.5337 24.8542 14.5858 24.8125 14.6274L21.4375 12.4399ZM15.6875 25.2524C15.9375 24.7108 16.3125 24.2524 16.8125 23.8774C17.3125 23.5024 17.875 23.3149 18.5 23.3149C18.5417 23.3149 18.5625 23.3149 18.5625 23.3149L18.3125 24.1274C18.1458 24.5024 17.9062 24.8462 17.5938 25.1587C17.2812 25.4712 16.9167 25.6899 16.5 25.8149L15.625 25.5649L15.6875 25.2524ZM18.9375 26.6899C19.1875 26.4399 19.4167 26.1587 19.625 25.8462C19.8333 25.5337 20 25.1899 20.125 24.8149H20.1875L20.3125 24.3774C20.3958 24.4608 20.4896 24.5233 20.5938 24.5649C20.6979 24.6066 20.8125 24.6274 20.9375 24.6274C21.2292 24.6274 21.4688 24.5337 21.6562 24.3462C21.8438 24.1587 21.9375 23.9191 21.9375 23.6274C21.9375 23.5024 21.9167 23.3879 21.875 23.2837C21.8333 23.1795 21.7708 23.0858 21.6875 23.0024L20.8125 22.1274C21.2708 21.7941 21.7604 21.5129 22.2812 21.2837C22.8021 21.0545 23.3333 20.8983 23.875 20.8149H23.9375C24.0208 20.9399 24.0938 21.0649 24.1562 21.1899C24.2188 21.3149 24.2917 21.4399 24.375 21.5649L29.3125 28.6899H24.75L18.9375 26.6899ZM39 55.6899C39 55.9816 38.9062 56.2212 38.7188 56.4087C38.5312 56.5962 38.2917 56.6899 38 56.6899C37.7083 56.6899 37.4688 56.5962 37.2812 56.4087C37.0938 56.2212 37 55.9816 37 55.6899V43.6899C37 43.3983 37.0938 43.1587 37.2812 42.9712C37.4688 42.7837 37.7083 42.6899 38 42.6899C38.2917 42.6899 38.5312 42.7837 38.7188 42.9712C38.9062 43.1587 39 43.3983 39 43.6899V46.8149C38.6667 47.3983 38.4167 48.0129 38.25 48.6587C38.0833 49.3045 38 49.9816 38 50.6899C38.0417 51.6066 38.1562 52.492 38.3438 53.3462C38.5312 54.2004 38.7708 55.0233 39.0625 55.8149V55.6899H39ZM55 40.6899H55.8125C55.6042 41.2733 55.25 41.7524 54.75 42.1274C54.25 42.5024 53.6667 42.6899 53 42.6899H52.1875C52.3958 42.1066 52.75 41.6274 53.25 41.2524C53.75 40.8774 54.3333 40.6899 55 40.6899ZM48.875 44.5649L48.25 39.5649C48.25 39.5233 48.25 39.5024 48.25 39.5024C48.25 39.5024 48.25 39.4816 48.25 39.4399C48.25 39.2316 48.3229 39.0545 48.4688 38.9087C48.6146 38.7629 48.7917 38.6899 49 38.6899C49.2083 38.6899 49.3854 38.7629 49.5312 38.9087C49.6771 39.0545 49.75 39.2316 49.75 39.4399C49.75 39.4816 49.75 39.5024 49.75 39.5024C49.75 39.5024 49.75 39.5233 49.75 39.5649L49.125 44.5649C49.125 44.6066 49.1146 44.6379 49.0938 44.6587C49.0729 44.6795 49.0417 44.6899 49 44.6899C48.9583 44.6899 48.9271 44.6795 48.9062 44.6587C48.8854 44.6379 48.875 44.6066 48.875 44.5649ZM53.375 46.8774C53.3333 46.8358 53.2708 46.8045 53.1875 46.7837C53.1042 46.7629 53.0208 46.7524 52.9375 46.7524C52.6458 46.7524 52.4062 46.8566 52.2188 47.0649C52.0312 47.2733 51.9375 47.5024 51.9375 47.7524C51.9375 47.9608 51.9896 48.1379 52.0938 48.2837C52.1979 48.4295 52.3125 48.5441 52.4375 48.6274C52.7708 48.7941 53.0417 49.0024 53.25 49.2524C53.4583 49.5024 53.625 49.7941 53.75 50.1274C53.8333 50.3358 53.9583 50.5024 54.125 50.6274C54.2917 50.7524 54.4792 50.8149 54.6875 50.8149C54.9792 50.8149 55.2188 50.7212 55.4062 50.5337C55.5938 50.3462 55.6875 50.1066 55.6875 49.8149C55.6875 49.7316 55.6875 49.6587 55.6875 49.5962C55.6875 49.5337 55.6667 49.4816 55.625 49.4399C55.4167 48.8983 55.125 48.4087 54.75 47.9712C54.375 47.5337 53.9375 47.1691 53.4375 46.8774H53.375Z" fill="#FF9900"/>
</svg>
