<svg width="64" height="65" viewBox="0 0 64 65" fill="none" xmlns="http://www.w3.org/2000/svg">
<path d="M63.5625 35.3149L58.3125 30.0649C58.1042 29.8566 57.875 29.7524 57.625 29.7524C57.375 29.7524 57.1667 29.8566 57 30.0649C56.7917 30.2316 56.6875 30.4504 56.6875 30.7212C56.6875 30.992 56.7917 31.2108 57 31.3774L62 36.3774L60 38.3774L48.9375 27.3149C49.1458 27.1899 49.3333 27.0441 49.5 26.8774C49.6667 26.7108 49.8333 26.5441 50 26.3774C50.1667 26.2108 50.3333 26.0441 50.5 25.8774C50.6667 25.7108 50.8125 25.5233 50.9375 25.3149L53.875 28.2524C54.0417 28.4608 54.2604 28.5649 54.5312 28.5649C54.8021 28.5649 55.0208 28.4608 55.1875 28.2524C55.3542 28.0858 55.4375 27.867 55.4375 27.5962C55.4375 27.3254 55.3542 27.1066 55.1875 26.9399L52.0625 23.8149C53.6042 21.1899 54.2083 18.3254 53.875 15.2212C53.5417 12.117 52.25 9.43994 50 7.18994C48.7083 5.93994 47.2396 4.97119 45.5938 4.28369C43.9479 3.59619 42.2292 3.25244 40.4375 3.25244C38.6042 3.25244 36.8646 3.59619 35.2188 4.28369C33.5729 4.97119 32.1042 5.93994 30.8125 7.18994C29.4792 8.52327 28.5 10.0233 27.875 11.6899C27.2083 13.3566 26.875 15.0545 26.875 16.7837C26.875 18.5129 27.2083 20.2108 27.875 21.8774C28.5 23.5441 29.4792 25.0441 30.8125 26.3774C32.1458 27.7108 33.6458 28.7108 35.3125 29.3774C36.9792 30.0441 38.6875 30.3774 40.4375 30.3774C41.6458 30.3774 42.8438 30.2108 44.0312 29.8774C45.2188 29.5441 46.3333 29.0649 47.375 28.4399L58.875 39.9399C59.0417 40.1066 59.2188 40.2212 59.4062 40.2837C59.5938 40.3462 59.7917 40.3774 60 40.3774C60.2083 40.3774 60.4062 40.3462 60.5938 40.2837C60.7812 40.2212 60.9583 40.1066 61.125 39.9399L63.5625 37.5024C63.8542 37.2108 64 36.8462 64 36.4087C64 35.9712 63.8542 35.6066 63.5625 35.3149ZM40.4375 28.5024C38.9375 28.5024 37.4688 28.2108 36.0312 27.6274C34.5938 27.0441 33.2917 26.1899 32.125 25.0649C29.875 22.7733 28.75 20.0129 28.75 16.7837C28.75 13.5545 29.875 10.8149 32.125 8.56494C33.25 7.43994 34.5208 6.58577 35.9375 6.00244C37.3542 5.41911 38.8542 5.12744 40.4375 5.12744C41.9792 5.12744 43.4583 5.41911 44.875 6.00244C46.2917 6.58577 47.5625 7.43994 48.6875 8.56494C50.9375 10.8149 52.0625 13.5545 52.0625 16.7837C52.0625 20.0129 50.9375 22.7733 48.6875 25.0649C47.5208 26.1899 46.2188 27.0441 44.7812 27.6274C43.3438 28.2108 41.8958 28.5024 40.4375 28.5024ZM47.4375 9.81494C46.4792 8.85661 45.3958 8.12744 44.1875 7.62744C42.9792 7.12744 41.7292 6.87744 40.4375 6.87744C39.1042 6.87744 37.8333 7.12744 36.625 7.62744C35.4167 8.12744 34.3333 8.85661 33.375 9.81494C32.4583 10.7316 31.75 11.7941 31.25 13.0024C30.75 14.2108 30.5 15.4816 30.5 16.8149C30.5 18.1483 30.75 19.4087 31.25 20.5962C31.75 21.7837 32.4583 22.8566 33.375 23.8149C34.375 24.7733 35.4792 25.492 36.6875 25.9712C37.8958 26.4504 39.1458 26.6899 40.4375 26.6899C41.6875 26.6899 42.9271 26.4504 44.1562 25.9712C45.3854 25.492 46.4792 24.7733 47.4375 23.8149C48.3542 22.8566 49.0625 21.7837 49.5625 20.5962C50.0625 19.4087 50.3125 18.1483 50.3125 16.8149C50.3125 15.4816 50.0625 14.2108 49.5625 13.0024C49.0625 11.7941 48.3542 10.7316 47.4375 9.81494ZM46.0625 22.5024C45.3125 23.2941 44.4375 23.8774 43.4375 24.2524C42.4375 24.6274 41.4375 24.8149 40.4375 24.8149C39.3958 24.8149 38.375 24.617 37.375 24.2212C36.375 23.8254 35.5 23.2524 34.75 22.5024C33.9583 21.7108 33.3646 20.8358 32.9688 19.8774C32.5729 18.9191 32.375 17.8983 32.375 16.8149C32.375 15.7316 32.5729 14.7004 32.9688 13.7212C33.3646 12.742 33.9583 11.8774 34.75 11.1274C35.5 10.3774 36.3646 9.79411 37.3438 9.37744C38.3229 8.96077 39.3542 8.75244 40.4375 8.75244C41.4792 8.75244 42.4896 8.96077 43.4688 9.37744C44.4479 9.79411 45.3125 10.3774 46.0625 11.1274C46.8542 11.8774 47.4479 12.742 47.8438 13.7212C48.2396 14.7004 48.4375 15.7316 48.4375 16.8149C48.4375 17.8983 48.2396 18.9191 47.8438 19.8774C47.4479 20.8358 46.8542 21.7108 46.0625 22.5024ZM51.375 43.7524C51.2083 43.9608 51.1458 44.1899 51.1875 44.4399C51.2292 44.6899 51.3542 44.8983 51.5625 45.0649C51.7708 45.1899 52 45.242 52.25 45.2212C52.5 45.2004 52.7083 45.0858 52.875 44.8774C52.9167 44.8358 52.9479 44.7941 52.9688 44.7524C52.9896 44.7108 53.0208 44.6691 53.0625 44.6274C54.0208 43.2524 54.3646 41.8774 54.0938 40.5024C53.8229 39.1274 53.25 38.0024 52.375 37.1274C51.5 36.2108 50.375 35.617 49 35.3462C47.625 35.0754 46.2292 35.4399 44.8125 36.4399C44.6042 36.6066 44.3854 36.7837 44.1562 36.9712C43.9271 37.1587 43.7083 37.3566 43.5 37.5649C42.2083 38.8149 41.3333 40.3149 40.875 42.0649C40.4167 43.8149 40.3958 45.5649 40.8125 47.3149L38.3125 49.8149L35.875 47.3149C36.2917 45.5649 36.2708 43.8149 35.8125 42.0649C35.3542 40.3149 34.4792 38.8149 33.1875 37.5649C32.9792 37.3566 32.7604 37.1587 32.5312 36.9712C32.3021 36.7837 32.0833 36.6066 31.875 36.4399C31.4167 36.1066 30.9688 35.8566 30.5312 35.6899C30.0938 35.5233 29.6458 35.4191 29.1875 35.3774C28.1875 34.1274 27.0417 33.0545 25.75 32.1587C24.4583 31.2629 23.0625 30.5858 21.5625 30.1274V26.6274C21.5625 26.3774 21.4688 26.1587 21.2812 25.9712C21.0938 25.7837 20.875 25.6899 20.625 25.6899C20.375 25.6899 20.1562 25.7837 19.9688 25.9712C19.7812 26.1587 19.6875 26.3774 19.6875 26.6274V30.3149C19.6875 30.6899 19.7917 31.0129 20 31.2837C20.2083 31.5545 20.4792 31.7316 20.8125 31.8149C21.9375 32.1899 23.0208 32.6899 24.0625 33.3149C25.1042 33.9399 26.0417 34.6899 26.875 35.5649C26.375 35.7316 25.9062 35.9399 25.4688 36.1899C25.0312 36.4399 24.6458 36.7524 24.3125 37.1274C24.1458 37.2524 24 37.3983 23.875 37.5649C23.75 37.7316 23.625 37.9191 23.5 38.1274H7.0625C6.77083 38.1274 6.51042 38.1899 6.28125 38.3149C6.05208 38.4399 5.85417 38.6274 5.6875 38.8774C5.0625 39.8774 4.57292 40.9608 4.21875 42.1274C3.86458 43.2941 3.6875 44.4816 3.6875 45.6899C3.6875 47.4399 4.02083 49.1066 4.6875 50.6899C5.35417 52.2316 6.27083 53.5754 7.4375 54.7212C8.60417 55.867 9.95833 56.7733 11.5 57.4399C13.0417 58.1066 14.6875 58.4399 16.4375 58.4399C19.4792 58.4399 22.1562 57.492 24.4688 55.5962C26.7812 53.7004 28.25 51.3149 28.875 48.4399C29.1667 48.5649 29.4583 48.6587 29.75 48.7212C30.0417 48.7837 30.3333 48.8358 30.625 48.8774C30.3333 50.2108 29.8542 51.492 29.1875 52.7212C28.5208 53.9504 27.6667 55.0649 26.625 56.0649C25.25 57.4399 23.6562 58.492 21.8438 59.2212C20.0312 59.9504 18.1458 60.2941 16.1875 60.2524C14.3125 60.2524 12.5 59.8774 10.75 59.1274C9 58.3774 7.45833 57.3149 6.125 55.9399C4.79167 54.6066 3.75 53.0649 3 51.3149C2.25 49.5649 1.875 47.7524 1.875 45.8774C1.875 44.2524 2.11458 42.7004 2.59375 41.2212C3.07292 39.742 3.77083 38.3566 4.6875 37.0649C5.60417 35.8149 6.69792 34.742 7.96875 33.8462C9.23958 32.9504 10.6042 32.2733 12.0625 31.8149C12.3958 31.7316 12.6667 31.5545 12.875 31.2837C13.0833 31.0129 13.1875 30.6899 13.1875 30.3149V19.6899H19.6875V22.1899C19.6875 22.4399 19.7812 22.6587 19.9688 22.8462C20.1562 23.0337 20.375 23.1274 20.625 23.1274C20.875 23.1274 21.0938 23.0337 21.2812 22.8462C21.4688 22.6587 21.5625 22.4399 21.5625 22.1899V19.6899H22.375C23 19.6899 23.5208 19.4816 23.9375 19.0649C24.3542 18.6483 24.5625 18.1274 24.5625 17.5024V14.9399C24.5625 14.3566 24.3542 13.8462 23.9375 13.4087C23.5208 12.9712 23 12.7524 22.375 12.7524H10.4375C9.85417 12.7524 9.34375 12.9712 8.90625 13.4087C8.46875 13.8462 8.25 14.3566 8.25 14.9399V17.5024C8.25 18.1274 8.46875 18.6483 8.90625 19.0649C9.34375 19.4816 9.85417 19.6899 10.4375 19.6899H11.3125V30.1274C9.6875 30.6274 8.1875 31.3879 6.8125 32.4087C5.4375 33.4295 4.22917 34.6066 3.1875 35.9399C2.14583 37.3983 1.35417 38.9712 0.8125 40.6587C0.270833 42.3462 0 44.0858 0 45.8774C0.0416667 48.0024 0.46875 50.0545 1.28125 52.0337C2.09375 54.0129 3.27083 55.7733 4.8125 57.3149C6.3125 58.8149 8.04167 59.9816 10 60.8149C11.9583 61.6483 14.0208 62.0858 16.1875 62.1274C16.2292 62.1274 16.2708 62.1274 16.3125 62.1274C16.3542 62.1274 16.3958 62.1274 16.4375 62.1274C17.6875 62.1274 18.9062 61.992 20.0938 61.7212C21.2812 61.4504 22.4167 61.0649 23.5 60.5649H52.125C52.375 60.5649 52.5938 60.4712 52.7812 60.2837C52.9688 60.0962 53.0625 59.8774 53.0625 59.6274C53.0625 59.3774 52.9688 59.1587 52.7812 58.9712C52.5938 58.7837 52.375 58.6899 52.125 58.6899H39.25V51.5024L42.125 48.6274C42.5417 48.7524 42.9583 48.8358 43.375 48.8774C43.7917 48.9191 44.2083 48.9399 44.625 48.9399C45.4167 48.9399 46.1875 48.8566 46.9375 48.6899C47.6875 48.5233 48.4167 48.2733 49.125 47.9399C49.375 47.8149 49.5417 47.6274 49.625 47.3774C49.7083 47.1274 49.6875 46.8983 49.5625 46.6899C49.4792 46.4399 49.3125 46.2733 49.0625 46.1899C48.8125 46.1066 48.5625 46.1274 48.3125 46.2524C47.6042 46.5858 46.8646 46.8254 46.0938 46.9712C45.3229 47.117 44.5417 47.1483 43.75 47.0649L48.25 42.5649C48.4167 42.3983 48.5 42.1795 48.5 41.9087C48.5 41.6379 48.4167 41.4191 48.25 41.2524C48.0417 41.0441 47.8125 40.9399 47.5625 40.9399C47.3125 40.9399 47.0833 41.0441 46.875 41.2524L42.4375 45.6899C42.3125 44.4399 42.4583 43.2212 42.875 42.0337C43.2917 40.8462 43.9583 39.7941 44.875 38.8774C45.0417 38.7108 45.2083 38.5545 45.375 38.4087C45.5417 38.2629 45.7292 38.1066 45.9375 37.9399C46.9375 37.2316 47.8958 36.992 48.8125 37.2212C49.7292 37.4504 50.4792 37.8566 51.0625 38.4399C51.6042 38.9816 51.9896 39.7212 52.2188 40.6587C52.4479 41.5962 52.2083 42.5649 51.5 43.5649C51.5 43.5649 51.4896 43.5858 51.4688 43.6274C51.4479 43.6691 51.4167 43.7108 51.375 43.7524ZM10.4375 17.8149C10.3542 17.8149 10.2812 17.7837 10.2188 17.7212C10.1562 17.6587 10.125 17.5858 10.125 17.5024V14.9399C10.125 14.8566 10.1562 14.7837 10.2188 14.7212C10.2812 14.6587 10.3542 14.6274 10.4375 14.6274H22.375C22.4583 14.6274 22.5312 14.6587 22.5938 14.7212C22.6562 14.7837 22.6875 14.8566 22.6875 14.9399V17.5024C22.6875 17.5858 22.6562 17.6587 22.5938 17.7212C22.5312 17.7837 22.4583 17.8149 22.375 17.8149H10.4375ZM7.1875 40.0024H22.6875C22.6042 40.2941 22.5521 40.5962 22.5312 40.9087C22.5104 41.2212 22.5208 41.5441 22.5625 41.8774H6.3125C6.39583 41.5441 6.52083 41.2212 6.6875 40.9087C6.85417 40.5962 7.02083 40.2941 7.1875 40.0024ZM16.4375 56.5649C13.4375 56.5649 10.875 55.5024 8.75 53.3774C6.625 51.2524 5.5625 48.6899 5.5625 45.6899C5.5625 45.3566 5.58333 45.0233 5.625 44.6899C5.66667 44.3566 5.70833 44.0441 5.75 43.7524H23.125C23.2083 43.8774 23.2917 44.0129 23.375 44.1587C23.4583 44.3045 23.5417 44.4608 23.625 44.6274C23.7917 44.8774 23.9688 45.1066 24.1562 45.3149C24.3438 45.5233 24.5417 45.7316 24.75 45.9399C25.125 46.2733 25.5104 46.5962 25.9062 46.9087C26.3021 47.2212 26.7083 47.4816 27.125 47.6899C26.6667 50.2316 25.4375 52.3462 23.4375 54.0337C21.4375 55.7212 19.1042 56.5649 16.4375 56.5649ZM26.0625 44.6274C25.8958 44.4608 25.7396 44.2837 25.5938 44.0962C25.4479 43.9087 25.3125 43.7316 25.1875 43.5649C24.4792 42.5649 24.2396 41.5962 24.4688 40.6587C24.6979 39.7212 25.0833 38.9816 25.625 38.4399C25.9583 38.1066 26.375 37.8149 26.875 37.5649C27.375 37.3149 27.9167 37.1899 28.5 37.1899C28.875 37.1899 29.25 37.2524 29.625 37.3774C30 37.5024 30.375 37.6899 30.75 37.9399C30.9583 38.1066 31.1458 38.2629 31.3125 38.4087C31.4792 38.5545 31.6458 38.7108 31.8125 38.8774C32.7292 39.7941 33.3958 40.8462 33.8125 42.0337C34.2292 43.2212 34.375 44.4399 34.25 45.6899L29.8125 41.2524C29.6042 41.0441 29.375 40.9399 29.125 40.9399C28.875 40.9399 28.6458 41.0441 28.4375 41.2524C28.2708 41.4191 28.1875 41.6379 28.1875 41.9087C28.1875 42.1795 28.2708 42.3983 28.4375 42.5649L32.9375 47.0649C31.6875 47.1899 30.4583 47.0441 29.25 46.6274C28.0417 46.2108 26.9792 45.5441 26.0625 44.6274ZM37.375 58.6899H26.5C26.75 58.4816 27 58.2733 27.25 58.0649C27.5 57.8566 27.7292 57.6483 27.9375 57.4399C29.1458 56.2733 30.1354 54.9608 30.9062 53.5024C31.6771 52.0441 32.2292 50.5233 32.5625 48.9399C32.8958 48.9399 33.2292 48.9087 33.5625 48.8462C33.8958 48.7837 34.2292 48.7108 34.5625 48.6274L37.375 51.5024V58.6899ZM14.1875 48.4399C14.1875 48.6899 14.0938 48.9087 13.9062 49.0962C13.7188 49.2837 13.5 49.3774 13.25 49.3774C13 49.3774 12.7812 49.2837 12.5938 49.0962C12.4062 48.9087 12.3125 48.6899 12.3125 48.4399C12.3125 48.1899 12.4062 47.9712 12.5938 47.7837C12.7812 47.5962 13 47.5024 13.25 47.5024C13.5 47.5024 13.7188 47.5962 13.9062 47.7837C14.0938 47.9712 14.1875 48.1899 14.1875 48.4399ZM18.5625 52.5649C18.5625 52.8149 18.4688 53.0337 18.2812 53.2212C18.0938 53.4087 17.875 53.5024 17.625 53.5024C17.375 53.5024 17.1562 53.4087 16.9688 53.2212C16.7812 53.0337 16.6875 52.8149 16.6875 52.5649C16.6875 52.3149 16.7812 52.0962 16.9688 51.9087C17.1562 51.7212 17.375 51.6274 17.625 51.6274C17.875 51.6274 18.0938 51.7212 18.2812 51.9087C18.4688 52.0962 18.5625 52.3149 18.5625 52.5649ZM20.3125 46.5649C20.3125 46.8149 20.2188 47.0337 20.0312 47.2212C19.8438 47.4087 19.625 47.5024 19.375 47.5024C19.125 47.5024 18.9062 47.4087 18.7188 47.2212C18.5312 47.0337 18.4375 46.8149 18.4375 46.5649C18.4375 46.3149 18.5312 46.0962 18.7188 45.9087C18.9062 45.7212 19.125 45.6274 19.375 45.6274C19.625 45.6274 19.8438 45.7212 20.0312 45.9087C20.2188 46.0962 20.3125 46.3149 20.3125 46.5649Z" fill="#FF9900"/>
</svg>
